<svg width="350" height="150" viewBox="0 0 350 150" fill="none" xmlns="http://www.w3.org/2000/svg">
<path d="M54.096 101.247C54.096 101.603 53.7065 101.887 53.2153 101.887C52.6565 101.941 52.2669 101.656 52.2669 101.247C52.2669 100.891 52.6565 100.607 53.1476 100.607C53.6556 100.554 54.096 100.838 54.096 101.247ZM48.829 100.447C48.7105 100.802 49.0492 101.212 49.5573 101.318C49.9976 101.496 50.5056 101.318 50.6073 100.963C50.7089 100.607 50.3871 100.198 49.879 100.038C49.4387 99.9133 48.9476 100.091 48.829 100.447ZM56.3145 100.145C55.8234 100.269 55.4847 100.607 55.5355 101.016C55.5863 101.372 56.0266 101.603 56.5347 101.478C57.0258 101.354 57.3645 101.016 57.3137 100.66C57.2629 100.322 56.8056 100.091 56.3145 100.145ZM67.4581 32C43.9685 32 26 50.7255 26 75.3906C26 95.1119 37.821 111.988 54.7056 117.928C56.8734 118.337 57.6355 116.932 57.6355 115.776C57.6355 114.673 57.5847 108.591 57.5847 104.857C57.5847 104.857 45.7298 107.524 43.2403 99.5577C43.2403 99.5577 41.3097 94.3828 38.5323 93.0491C38.5323 93.0491 34.654 90.2572 38.8032 90.3105C38.8032 90.3105 43.0202 90.6662 45.3403 94.8985C49.0492 101.763 55.2645 99.7889 57.6863 98.6152C58.0758 95.7699 59.1766 93.796 60.396 92.6223C50.929 91.5198 41.3774 90.0793 41.3774 72.9721C41.3774 68.0817 42.6645 65.6277 45.3742 62.4979C44.9339 61.342 43.4944 56.5761 45.8145 50.4232C49.354 49.2673 57.5 55.2246 57.5 55.2246C60.8871 54.2288 64.5282 53.7131 68.1355 53.7131C71.7427 53.7131 75.3839 54.2288 78.771 55.2246C78.771 55.2246 86.9169 49.2495 90.4565 50.4232C92.7766 56.5939 91.3371 61.342 90.8968 62.4979C93.6065 65.6455 95.2661 68.0995 95.2661 72.9721C95.2661 90.1327 85.2911 91.502 75.8242 92.6223C77.3823 94.0272 78.7032 96.6946 78.7032 100.874C78.7032 106.867 78.6524 114.282 78.6524 115.74C78.6524 116.896 79.4315 118.301 81.5823 117.892C98.5177 111.988 110 95.1119 110 75.3906C110 50.7255 90.9476 32 67.4581 32ZM42.4613 93.3336C42.2411 93.5115 42.2919 93.9205 42.5798 94.2583C42.8508 94.5429 43.2403 94.6674 43.4605 94.4362C43.6806 94.2583 43.6298 93.8493 43.3419 93.5115C43.071 93.2269 42.6815 93.1024 42.4613 93.3336ZM40.6323 91.8932C40.5137 92.1244 40.6831 92.4089 41.0218 92.5867C41.2927 92.7646 41.6315 92.7112 41.75 92.4623C41.8685 92.2311 41.6992 91.9466 41.3605 91.7687C41.0218 91.662 40.7508 91.7154 40.6323 91.8932ZM46.1194 98.224C45.8484 98.4551 45.95 98.9886 46.3395 99.3265C46.729 99.7355 47.2202 99.7889 47.4403 99.5043C47.6605 99.2732 47.5589 98.7397 47.2202 98.4018C46.8476 97.9928 46.3395 97.9394 46.1194 98.224ZM44.1887 95.6099C43.9177 95.7877 43.9177 96.25 44.1887 96.659C44.4597 97.0681 44.9169 97.2459 45.1371 97.0681C45.4081 96.8369 45.4081 96.3745 45.1371 95.9655C44.9 95.5565 44.4597 95.3787 44.1887 95.6099Z" fill="#333333"/>
<path d="M176.291 62.4H178.847V72.012C177.671 73.044 176.279 73.836 174.671 74.388C173.063 74.94 171.371 75.216 169.595 75.216C167.075 75.216 164.807 74.664 162.791 73.56C160.775 72.456 159.191 70.932 158.039 68.988C156.887 67.02 156.311 64.824 156.311 62.4C156.311 59.976 156.887 57.792 158.039 55.848C159.191 53.88 160.775 52.344 162.791 51.24C164.807 50.136 167.087 49.584 169.631 49.584C171.551 49.584 173.315 49.896 174.923 50.52C176.531 51.12 177.887 52.02 178.991 53.22L177.335 54.912C175.343 52.944 172.811 51.96 169.739 51.96C167.699 51.96 165.851 52.416 164.195 53.328C162.563 54.216 161.279 55.464 160.343 57.072C159.407 58.656 158.939 60.432 158.939 62.4C158.939 64.368 159.407 66.144 160.343 67.728C161.279 69.312 162.563 70.56 164.195 71.472C165.827 72.384 167.663 72.84 169.703 72.84C172.295 72.84 174.491 72.192 176.291 70.896V62.4ZM185.847 56.064H188.403V75H185.847V56.064ZM187.143 51.924C186.615 51.924 186.171 51.744 185.811 51.384C185.451 51.024 185.271 50.592 185.271 50.088C185.271 49.608 185.451 49.188 185.811 48.828C186.171 48.468 186.615 48.288 187.143 48.288C187.671 48.288 188.115 48.468 188.475 48.828C188.835 49.164 189.015 49.572 189.015 50.052C189.015 50.58 188.835 51.024 188.475 51.384C188.115 51.744 187.671 51.924 187.143 51.924ZM205.487 73.848C205.007 74.28 204.407 74.616 203.687 74.856C202.991 75.072 202.259 75.18 201.491 75.18C199.715 75.18 198.347 74.7 197.387 73.74C196.427 72.78 195.947 71.424 195.947 69.672V58.224H192.563V56.064H195.947V51.924H198.503V56.064H204.263V58.224H198.503V69.528C198.503 70.656 198.779 71.52 199.331 72.12C199.907 72.696 200.723 72.984 201.779 72.984C202.307 72.984 202.811 72.9 203.291 72.732C203.795 72.564 204.227 72.324 204.587 72.012L205.487 73.848ZM219.788 55.92C222.164 55.92 224.048 56.616 225.44 58.008C226.856 59.376 227.564 61.38 227.564 64.02V75H225.008V64.272C225.008 62.304 224.516 60.804 223.532 59.772C222.548 58.74 221.144 58.224 219.32 58.224C217.28 58.224 215.66 58.836 214.46 60.06C213.284 61.26 212.696 62.928 212.696 65.064V75H210.14V48.288H212.696V59.376C213.392 58.272 214.352 57.42 215.576 56.82C216.8 56.22 218.204 55.92 219.788 55.92ZM251.567 56.064V75H249.119V71.544C248.447 72.696 247.523 73.596 246.347 74.244C245.171 74.868 243.827 75.18 242.315 75.18C239.843 75.18 237.887 74.496 236.447 73.128C235.031 71.736 234.323 69.708 234.323 67.044V56.064H236.879V66.792C236.879 68.784 237.371 70.296 238.355 71.328C239.339 72.36 240.743 72.876 242.567 72.876C244.559 72.876 246.131 72.276 247.283 71.076C248.435 69.852 249.011 68.16 249.011 66V56.064H251.567ZM268.482 55.92C270.258 55.92 271.866 56.328 273.306 57.144C274.746 57.936 275.874 59.064 276.69 60.528C277.506 61.992 277.914 63.66 277.914 65.532C277.914 67.404 277.506 69.072 276.69 70.536C275.874 72 274.746 73.14 273.306 73.956C271.866 74.772 270.258 75.18 268.482 75.18C266.898 75.18 265.47 74.844 264.198 74.172C262.95 73.5 261.942 72.528 261.174 71.256V75H258.726V48.288H261.282V59.664C262.074 58.44 263.082 57.516 264.306 56.892C265.554 56.244 266.946 55.92 268.482 55.92ZM268.302 72.912C269.622 72.912 270.822 72.612 271.902 72.012C272.982 71.388 273.822 70.512 274.422 69.384C275.046 68.256 275.358 66.972 275.358 65.532C275.358 64.092 275.046 62.808 274.422 61.68C273.822 60.552 272.982 59.688 271.902 59.088C270.822 58.464 269.622 58.152 268.302 58.152C266.958 58.152 265.746 58.464 264.666 59.088C263.61 59.688 262.77 60.552 262.146 61.68C261.546 62.808 261.246 64.092 261.246 65.532C261.246 66.972 261.546 68.256 262.146 69.384C262.77 70.512 263.61 71.388 264.666 72.012C265.746 72.612 266.958 72.912 268.302 72.912Z" fill="#333333"/>
<path d="M156.338 81.8L145.178 107H142.55L131.39 81.8H134.27L143.918 103.688L153.638 81.8H156.338ZM169.07 88.064H171.626V107H169.07V88.064ZM170.366 83.924C169.838 83.924 169.394 83.744 169.034 83.384C168.674 83.024 168.494 82.592 168.494 82.088C168.494 81.608 168.674 81.188 169.034 80.828C169.394 80.468 169.838 80.288 170.366 80.288C170.894 80.288 171.338 80.468 171.698 80.828C172.058 81.164 172.238 81.572 172.238 82.052C172.238 82.58 172.058 83.024 171.698 83.384C171.338 83.744 170.894 83.924 170.366 83.924ZM204.946 98.324H189.106C189.25 100.292 190.006 101.888 191.374 103.112C192.742 104.312 194.47 104.912 196.558 104.912C197.734 104.912 198.814 104.708 199.798 104.3C200.782 103.868 201.634 103.244 202.354 102.428L203.794 104.084C202.954 105.092 201.898 105.86 200.626 106.388C199.378 106.916 197.998 107.18 196.486 107.18C194.542 107.18 192.814 106.772 191.302 105.956C189.814 105.116 188.65 103.964 187.81 102.5C186.97 101.036 186.55 99.38 186.55 97.532C186.55 95.684 186.946 94.028 187.738 92.564C188.554 91.1 189.658 89.96 191.05 89.144C192.466 88.328 194.05 87.92 195.802 87.92C197.554 87.92 199.126 88.328 200.518 89.144C201.91 89.96 203.002 91.1 203.794 92.564C204.586 94.004 204.982 95.66 204.982 97.532L204.946 98.324ZM195.802 90.116C193.978 90.116 192.442 90.704 191.194 91.88C189.97 93.032 189.274 94.544 189.106 96.416H202.534C202.366 94.544 201.658 93.032 200.41 91.88C199.186 90.704 197.65 90.116 195.802 90.116ZM247.345 88.064L240.181 107H237.769L231.793 91.484L225.817 107H223.405L216.277 88.064H218.725L224.665 104.156L230.749 88.064H232.945L238.993 104.156L245.005 88.064H247.345ZM276.874 98.324H261.034C261.178 100.292 261.934 101.888 263.302 103.112C264.67 104.312 266.398 104.912 268.486 104.912C269.662 104.912 270.742 104.708 271.726 104.3C272.71 103.868 273.562 103.244 274.282 102.428L275.722 104.084C274.882 105.092 273.826 105.86 272.554 106.388C271.306 106.916 269.926 107.18 268.414 107.18C266.47 107.18 264.742 106.772 263.23 105.956C261.742 105.116 260.578 103.964 259.738 102.5C258.898 101.036 258.478 99.38 258.478 97.532C258.478 95.684 258.874 94.028 259.666 92.564C260.482 91.1 261.586 89.96 262.978 89.144C264.394 88.328 265.978 87.92 267.73 87.92C269.482 87.92 271.054 88.328 272.446 89.144C273.838 89.96 274.93 91.1 275.722 92.564C276.514 94.004 276.91 95.66 276.91 97.532L276.874 98.324ZM267.73 90.116C265.906 90.116 264.37 90.704 263.122 91.88C261.898 93.032 261.202 94.544 261.034 96.416H274.462C274.294 94.544 273.586 93.032 272.338 91.88C271.114 90.704 269.578 90.116 267.73 90.116ZM294.281 91.772C294.881 90.5 295.769 89.54 296.945 88.892C298.145 88.244 299.621 87.92 301.373 87.92V90.404L300.761 90.368C298.769 90.368 297.209 90.98 296.081 92.204C294.953 93.428 294.389 95.144 294.389 97.352V107H291.833V88.064H294.281V91.772Z" fill="#999999"/>
</svg>
